<svg class="svg-icon" style="width: 1em;height: 1em;vertical-align: middle;fill: currentColor;overflow: hidden;" viewBox="0 0 1024 1024" version="1.1" xmlns="http://www.w3.org/2000/svg"><path d="M938.666667 256a85.333333 85.333333 0 0 0-85.333334-85.333333H170.666667a85.333333 85.333333 0 0 0-85.333334 85.333333v512a85.333333 85.333333 0 0 0 85.333334 85.333333h682.666666a85.333333 85.333333 0 0 0 85.333334-85.333333z m-209.066667 0L512 430.08 294.4 256zM810.666667 768H213.333333V354.986667l264.96 213.333333a42.666667 42.666667 0 0 0 26.453334 9.386667h14.933333a42.666667 42.666667 0 0 0 26.453333-9.386667l264.533334-213.333333z"  /></svg>